<?xml version="1.0" encoding="utf-8"?>
<!-- Generator: Adobe Illustrator 16.0.0, SVG Export Plug-In . SVG Version: 6.00 Build 0)  -->
<!DOCTYPE svg PUBLIC "-//W3C//DTD SVG 1.1//EN" "http://www.w3.org/Graphics/SVG/1.1/DTD/svg11.dtd">
<svg version="1.1" id="Layer_1" xmlns="http://www.w3.org/2000/svg" xmlns:xlink="http://www.w3.org/1999/xlink" x="0px" y="0px"
	 width="500px" height="500px" viewBox="0 0 500 500" enable-background="new 0 0 500 500" xml:space="preserve">
<circle fill="#FFFFFF" stroke="#FFFFFF" stroke-miterlimit="10" cx="250" cy="250" r="250"/>
<path fill="#2C3E50" stroke="#2C3E50" stroke-width="6" stroke-miterlimit="10" d="M347.179,326.928
	c-28.003-3.231-49.743-30.745-79.227-78.411c6.288-9.303,11.946-17.893,17.604-27.197c15.522-22.43,34.452-46.778,61.622-49.176
	V142.23c-41.389,3.785-66.979,38.792-93.687,83.385c-6.916-10.02-13.202-20.755-20.117-30.06
	c-19.754-27.942-41.797-51.327-74.796-53.499v30.938c31.351,6.636,54.991,43.391,76.054,78.389
	c-18.678,27.437-42.557,71.935-76.054,75.599v30.607c20.694-2.075,36.46-11.483,50.278-25.327
	c16.346-16.464,29.547-38.651,42.121-57.978c30.609,49.486,57.649,81.994,96.2,83.66V326.928z"/>
<path fill="#3B97D3" stroke="#3B97D3" stroke-width="6" stroke-miterlimit="10" d="M134.219,324.668
	c-33.029-8.702-51.665-38.473-51.665-73.285c0-46.76,24.217-71.355,51.665-77.738v-29.864
	c-44.041,8.099-85.305,42.478-85.305,106.886c0,54.204,36.656,97.916,85.305,106.004V324.668z"/>
<path fill="#3B97D3" stroke="#3B97D3" stroke-width="6" stroke-miterlimit="10" d="M371.54,143.534v31.704
	c26.525,8.844,45.904,35.208,45.904,75.429c0,31.125-15.03,63.739-45.904,73.583v31.222c44.722-10.103,79.546-49.812,79.546-106.954
	v-0.715C451.084,193.144,417.214,152.061,371.54,143.534z"/>
</svg>
